<?xml version="1.0" encoding="UTF-8"?>
<!DOCTYPE svg PUBLIC "-//W3C//DTD SVG 1.1//EN" "http://www.w3.org/Graphics/SVG/1.1/DTD/svg11.dtd">
<svg xmlns="http://www.w3.org/2000/svg" version="1.1" width="800px" height="450px" style="shape-rendering:geometricPrecision; text-rendering:geometricPrecision; image-rendering:optimizeQuality; fill-rule:evenodd; clip-rule:evenodd" xmlns:xlink="http://www.w3.org/1999/xlink">
<g><path style="opacity:1" fill="#e94131" d="M 427.5,14.5 C 468.053,20.8865 496.553,42.8865 513,80.5C 529.074,128.916 518.241,170.083 480.5,204C 465.533,215.935 448.533,223.102 429.5,225.5C 420.887,226.442 412.221,226.775 403.5,226.5C 403.388,218.32 403.388,210.32 403.5,202.5C 403.333,141.499 403.5,80.4991 404,19.5C 405.076,16.921 406.909,15.2543 409.5,14.5C 415.462,13.5287 421.462,13.5287 427.5,14.5 Z"/></g>
<g><path style="opacity:0.553" fill="#e0822c" d="M 427.5,14.5 C 421.462,13.5287 415.462,13.5287 409.5,14.5C 409.611,13.8826 409.944,13.3826 410.5,13C 416.436,12.0574 422.103,12.5574 427.5,14.5 Z"/></g>
<g><path style="opacity:1" fill="#fbbb01" d="M 403.5,202.5 C 403.388,210.32 403.388,218.32 403.5,226.5C 394.254,226.518 385.254,226.851 376.5,227.5C 316.832,227.667 257.166,227.5 197.5,227C 191.619,224.404 188.952,219.904 189.5,213.5C 195.442,157.101 226.109,122.934 281.5,111C 332.951,106.158 370.785,126.992 395,173.5C 398.946,182.973 401.78,192.64 403.5,202.5 Z"/></g>
<g><path style="opacity:1" fill="#0a9d57" d="M 403.5,226.5 C 403.302,234.534 403.635,242.534 404.5,250.5C 404.986,311.697 404.486,373.031 403,434.5C 401.833,437 400,438.833 397.5,440C 350.73,439.878 316.897,419.045 296,377.5C 277.587,328.657 287.42,286.491 325.5,251C 340.554,238.804 357.554,230.971 376.5,227.5C 385.254,226.851 394.254,226.518 403.5,226.5 Z"/></g>
<g><path style="opacity:1" fill="#4086f3" d="M 429.5,225.5 C 490.414,226.008 551.414,226.841 612.5,228C 616.924,230.987 618.591,235.153 617.5,240.5C 613.097,289.188 588.097,322.021 542.5,339C 491.472,351.662 450.639,336.829 420,294.5C 411.353,281.06 406.187,266.393 404.5,250.5C 403.635,242.534 403.302,234.534 403.5,226.5C 412.221,226.775 420.887,226.442 429.5,225.5 Z"/></g>
</svg>
